<?xml version="1.0" encoding="UTF-8" standalone="no"?>
<svg
   version="1.1"
   id="Layer_1"
   x="0px"
   y="0px"
   width="100%"
   viewBox="0 0 1024 1024"
   enable-background="new 0 0 1024 1024"
   xml:space="preserve"
   sodipodi:docname="logo_qchat_sbe.svg"
   inkscape:version="1.2.2 (b0a8486541, 2022-12-01)"
   xmlns:inkscape="http://www.inkscape.org/namespaces/inkscape"
   xmlns:sodipodi="http://sodipodi.sourceforge.net/DTD/sodipodi-0.dtd"
   xmlns="http://www.w3.org/2000/svg"
   xmlns:svg="http://www.w3.org/2000/svg"><defs
   id="defs608"><inkscape:path-effect
     effect="fillet_chamfer"
     id="path-effect2559"
     is_visible="true"
     lpeversion="1"
     nodesatellites_param="F,0,0,1,0,0,0,1 @ F,0,0,1,0,0,0,1 @ F,0,0,1,0,0,0,1 @ F,0,0,1,0,0,0,1 @ F,0,0,1,0,0,0,1 @ F,0,0,1,0,13.190976,0,1 @ F,0,0,1,0,31.120685,0,1 @ F,0,0,1,0,14.453837,0,1 @ F,0,0,1,0,0,0,1 @ F,0,0,1,0,28.201345,0,1 @ F,0,0,1,0,0,0,1 @ F,0,0,1,0,0,0,1 @ F,0,0,1,0,0,0,1 @ F,0,0,1,0,0,0,1 @ F,0,0,1,0,22.717409,0,1 @ F,0,0,1,0,33.563391,0,1 @ F,0,0,1,0,0,0,1 @ F,0,0,1,0,0,0,1"
     unit="px"
     method="auto"
     mode="F"
     radius="0"
     chamfer_steps="1"
     flexible="false"
     use_knot_distance="true"
     apply_no_radius="true"
     apply_with_radius="true"
     only_selected="false"
     hide_knots="false" /><inkscape:path-effect
     effect="fillet_chamfer"
     id="path-effect2557"
     is_visible="true"
     lpeversion="1"
     nodesatellites_param="F,0,0,1,0,0,0,1 @ F,0,0,1,0,0,0,1 @ F,0,0,1,0,0,0,1 @ F,0,0,1,0,38.838148,0,1 @ F,0,0,1,0,0,0,1 @ F,0,0,1,0,0,0,1 @ F,0,0,1,0,0,0,1 @ F,0,0,1,0,0,0,1 @ F,0,1,1,0,38.838148,0,1 @ F,0,0,1,0,0,0,1"
     unit="px"
     method="auto"
     mode="F"
     radius="0"
     chamfer_steps="1"
     flexible="false"
     use_knot_distance="true"
     apply_no_radius="true"
     apply_with_radius="true"
     only_selected="false"
     hide_knots="false" /><inkscape:path-effect
     effect="fillet_chamfer"
     id="path-effect2559-2"
     is_visible="true"
     lpeversion="1"
     nodesatellites_param="F,0,0,1,0,0,0,1 @ F,0,0,1,0,0,0,1 @ F,0,0,1,0,0,0,1 @ F,0,0,1,0,0,0,1 @ F,0,0,1,0,0,0,1 @ F,0,0,1,0,13.190976,0,1 @ F,0,0,1,0,31.120685,0,1 @ F,0,0,1,0,14.453837,0,1 @ F,0,0,1,0,0,0,1 @ F,0,0,1,0,28.201345,0,1 @ F,0,0,1,0,0,0,1 @ F,0,0,1,0,0,0,1 @ F,0,0,1,0,0,0,1 @ F,0,0,1,0,0,0,1 @ F,0,0,1,0,22.717409,0,1 @ F,0,0,1,0,33.563391,0,1 @ F,0,0,1,0,0,0,1 @ F,0,0,1,0,0,0,1"
     unit="px"
     method="auto"
     mode="F"
     radius="0"
     chamfer_steps="1"
     flexible="false"
     use_knot_distance="true"
     apply_no_radius="true"
     apply_with_radius="true"
     only_selected="false"
     hide_knots="false" /><inkscape:path-effect
     effect="fillet_chamfer"
     id="path-effect2557-9"
     is_visible="true"
     lpeversion="1"
     nodesatellites_param="F,0,0,1,0,0,0,1 @ F,0,0,1,0,0,0,1 @ F,0,0,1,0,0,0,1 @ F,0,0,1,0,38.838148,0,1 @ F,0,0,1,0,0,0,1 @ F,0,0,1,0,0,0,1 @ F,0,0,1,0,0,0,1 @ F,0,0,1,0,0,0,1 @ F,0,1,1,0,38.838148,0,1 @ F,0,0,1,0,0,0,1"
     unit="px"
     method="auto"
     mode="F"
     radius="0"
     chamfer_steps="1"
     flexible="false"
     use_knot_distance="true"
     apply_no_radius="true"
     apply_with_radius="true"
     only_selected="false"
     hide_knots="false" /></defs><sodipodi:namedview
   id="namedview606"
   pagecolor="#ffffff"
   bordercolor="#000000"
   borderopacity="0.25"
   inkscape:showpageshadow="2"
   inkscape:pageopacity="0.0"
   inkscape:pagecheckerboard="0"
   inkscape:deskcolor="#d1d1d1"
   showgrid="false"
   inkscape:zoom="0.31799089"
   inkscape:cx="26.730325"
   inkscape:cy="1124.246"
   inkscape:window-width="1920"
   inkscape:window-height="1172"
   inkscape:window-x="1920"
   inkscape:window-y="0"
   inkscape:window-maximized="1"
   inkscape:current-layer="Layer_1" />













<path
   id="path770"
   style="fill:#429a3d;fill-opacity:1;stroke:none;stroke-width:0.377953;stroke-linecap:square"
   d="M 503.70234,48.743535 C 391.94353,48.743197 284.76198,93.139059 205.73657,172.16447 126.71115,251.18988 82.315288,358.37143 82.315624,470.13024 c 1.78e-4,111.75847 44.396266,218.93953 123.421626,297.96452 79.02536,79.02499 186.20662,123.42059 297.96509,123.42025 19.93537,-0.20084 39.8258,-1.81613 59.52164,-4.83136 7.20099,-1.1024 17.65724,1.43903 23.3952,5.92786 l 106.62067,83.40979 a 14.400724,14.400724 152.86799 0 0 23.26227,-11.9203 l -3.17279,-78.98755 a 25.803803,25.803803 58.444675 0 0 -13.19848,-21.49134 l -19.72148,-11.01726 c -27.30879,-15.48447 -48.99596,-38.85705 -62.43876,-66.73894 -6.75464,-14.00987 -21.69261,-21.92359 -36.747,-17.95097 -25.26557,6.66721 -51.31459,10.1017 -77.52127,10.19187 -170.09114,1.4e-4 -307.97758,-137.88543 -307.97852,-307.97657 -1.3e-4,-170.09189 137.88663,-307.97865 307.97852,-307.97851 170.09113,9.4e-4 307.97669,137.88738 307.97656,307.97851 -0.076,27.05425 -3.71623,53.94708 -10.80162,79.98911 -3.2931,12.10365 3.18257,24.09607 14.71268,29.01365 19.86056,8.47051 37.67548,21.03317 52.29483,36.81598 12.57131,13.57177 26.25482,13.24894 32.50585,-4.19659 16.25547,-45.36614 24.63702,-93.26602 24.69647,-141.62215 C 925.08745,358.37177 880.69185,251.19051 801.66686,172.16516 722.64187,93.139803 615.46081,48.743713 503.70234,48.743535 Z"
   inkscape:path-effect="#path-effect2559"
   inkscape:original-d="M 503.70234,48.743535 A 421.38544,421.38544 0 0 0 82.315624,470.13024 421.38544,421.38544 0 0 0 503.70234,891.51501 421.38544,421.38544 0 0 0 576.22968,884.48376 L 717.75117,995.19661 712.74921,870.67126 680.40937,852.60485 A 153.20973,153.20973 0 0 1 608.12421,759.48181 307.97827,307.97827 0 0 1 503.70234,778.10681 307.97827,307.97827 0 0 1 195.72382,470.13024 307.97827,307.97827 0 0 1 503.70234,162.15173 307.97827,307.97827 0 0 1 811.6789,470.13024 307.97827,307.97827 0 0 1 794.11054,571.80017 153.20973,153.20973 0 0 1 887.82343,642.86462 421.38544,421.38544 0 0 0 925.08711,470.13024 421.38544,421.38544 0 0 0 503.70234,48.743535 Z"
   inkscape:export-filename="../qchat.png"
   inkscape:export-xdpi="68.345932"
   inkscape:export-ydpi="68.345932" /><path
   id="path770-3-6"
   style="fill:#429a3d;fill-opacity:1;stroke:none;stroke-width:0.19147;stroke-linecap:square"
   d="m 503.70234,256.65759 c -117.89777,-1.9e-4 -213.47285,95.57488 -213.47266,213.47265 8.8e-4,117.89701 95.57565,213.4709 213.47266,213.47071 28.19141,-0.0141 55.96786,-5.61005 81.77099,-16.32628 19.78198,-8.21559 22.02337,-30.36373 6.85613,-45.53097 L 558.2082,587.62243 c -17.39268,-17.39341 -17.39268,-45.59292 0,-62.98633 8.3528,-8.35267 19.68159,-13.04507 31.49414,-13.04492 11.81187,3.7e-4 23.13987,4.69273 31.49219,13.04492 l 34.12126,34.12127 c 15.16724,15.16724 37.31538,12.92585 45.53097,-6.85613 10.71623,-25.80313 16.31222,-53.57958 16.32628,-81.771 1.9e-4,-117.89701 -95.57369,-213.47176 -213.4707,-213.47265 z"
   inkscape:path-effect="#path-effect2557"
   inkscape:original-d="M 503.70234,256.65759 A 213.47231,213.47231 0 0 0 290.22968,470.13024 213.47231,213.47231 0 0 0 503.70234,683.60095 213.47231,213.47231 0 0 0 619.79218,649.20642 L 558.2082,587.62243 a 44.539001,44.539001 0 0 1 0,-62.98633 44.539001,44.539001 0 0 1 31.49414,-13.04492 44.539001,44.539001 0 0 1 31.49219,13.04492 l 61.58398,61.58399 A 213.47231,213.47231 0 0 0 717.17304,470.13024 213.47231,213.47231 0 0 0 503.70234,256.65759 Z" /><path
   id="path770-3-6-7"
   style="fill:#f2af2e;fill-opacity:1;stroke:none;stroke-width:0.117674;stroke-linecap:square"
   d="m 755.62812,588.86462 c -72.45842,-4.1e-4 -131.19767,58.73885 -131.19726,131.19727 -4.1e-4,72.45842 58.73884,131.19767 131.19726,131.19726 14.88856,-0.10769 29.65017,-2.74893 43.65235,-7.81055 25.1092,-8.69355 47.92875,10.30889 73.01757,11.65625 8.26153,0.35941 13.23394,-4.49942 9.72852,-11.39648 -5.83181,-12.71245 -25.08615,-37.85736 -15.17774,-54.27539 13.01416,-20.8009 19.93436,-44.8345 19.97461,-69.37109 4.1e-4,-72.45766 -58.73765,-131.1966 -131.19531,-131.19727 z"
   sodipodi:nodetypes="ccccccccc" /></svg>
